<svg width="50" height="50" viewBox="0 0 50 50" fill="none" xmlns="http://www.w3.org/2000/svg">
<g clip-path="url(#clip0_7628_611)">
<path d="M7.17495 17.8252C3.21865 17.8252 0 21.0437 0 25C0 28.9563 3.21865 32.1747 7.17495 32.1747C11.1313 32.1747 14.3497 28.9563 14.3497 25C14.3497 21.0437 11.1311 17.8252 7.17495 17.8252ZM7.17495 29.0004C4.96887 29.0004 3.17421 27.2057 3.17421 24.9998C3.17421 22.7939 4.96887 20.9992 7.17495 20.9992C9.38085 20.9992 11.1755 22.7939 11.1755 24.9998C11.1755 27.2057 9.38068 29.0004 7.17495 29.0004Z" fill="#FACC15"/>
<path d="M25 17.8252C21.0437 17.8252 17.8252 21.0437 17.8252 25C17.8252 28.9563 21.0437 32.1747 25 32.1747C28.9563 32.1747 32.1747 28.9563 32.1747 25C32.1747 21.0437 28.9561 17.8252 25 17.8252ZM25 29.0004C22.7941 29.0004 20.9994 27.2057 20.9994 24.9998C20.9994 22.7939 22.7941 20.9992 25 20.9992C27.2059 20.9992 29.0005 22.7939 29.0005 24.9998C29.0005 27.2057 27.2057 29.0004 25 29.0004Z" fill="#FACC15"/>
<path d="M42.8252 17.8252C38.8689 17.8252 35.6504 21.0437 35.6504 25C35.6504 28.9563 38.8689 32.1747 42.8252 32.1747C46.7815 32.1747 50.0001 28.9563 50.0001 25C50.0001 21.0437 46.7813 17.8252 42.8252 17.8252ZM42.8252 29.0004C40.6193 29.0004 38.8246 27.2057 38.8246 24.9998C38.8246 22.7939 40.6193 20.9992 42.8252 20.9992C45.0312 20.9992 46.8259 22.7939 46.8259 24.9998C46.8259 27.2057 45.0311 29.0004 42.8252 29.0004Z" fill="#FACC15"/>
</g>
<defs>
<clipPath id="clip0_7628_611">
<rect width="50" height="50" fill="white"/>
</clipPath>
</defs>
</svg>
