<svg width="50" height="50" viewBox="0 0 50 50" fill="black" xmlns="http://www.w3.org/2000/svg">
<path d="M42.1616 7.81307C44.4419 10.0904 46.2737 12.8176 47.5078 15.8522C48.6564 18.6762 49.2884 21.7649 49.2884 25.0002C49.2884 26.7509 49.1034 28.4589 48.7504 30.1043C47.7369 34.847 45.3386 39.0758 41.9979 42.3481C40.3853 43.9294 38.5506 45.2888 36.5465 46.3719C33.1119 48.2323 29.1792 49.2884 25.0002 49.2884C24.5931 49.2884 24.1888 49.2784 23.7875 49.2585C16.2052 48.8856 9.53818 45.0354 5.34496 39.2708C2.43134 35.264 0.711914 30.3321 0.711914 25.0002C0.711914 24.734 0.716184 24.4692 0.724724 24.2045C0.899798 18.7559 2.87115 13.7599 6.06375 9.79012C10.1502 4.70871 16.2408 1.30688 23.1341 0.783082C23.7504 0.736111 24.3725 0.711914 25.0002 0.711914C30.4673 0.711914 35.5117 2.51816 39.5711 5.56558C40.4878 6.25306 41.3532 7.0046 42.1616 7.81307Z" fill="#FCBC1D"/>
<path opacity="0.25" d="M27.0793 47.9669C24.2382 46.9634 21.6392 45.4447 19.396 43.5246C14.1879 39.0694 10.8871 32.4508 10.8871 25.0607C10.8871 18.5076 13.4833 12.5593 17.7022 8.19102C20.0265 5.78412 22.8433 3.85546 25.9904 2.56874C27.3027 2.03285 28.6729 1.60968 30.088 1.30807C28.447 0.95821 26.7455 0.772461 25.0002 0.772461C21.7492 0.772461 18.6491 1.41155 15.8152 2.56874C12.6682 3.85546 9.85132 5.78412 7.52697 8.19102C3.30813 12.5593 0.711914 18.5076 0.711914 25.0607C0.711914 32.4508 4.01269 39.0694 9.22077 43.5246C11.464 45.4447 14.063 46.9634 16.9041 47.9669C19.4362 48.8622 22.162 49.349 25.0002 49.349C26.7445 49.349 28.4458 49.1639 30.0864 48.8144C29.0585 48.5952 28.0544 48.3116 27.0793 47.9669Z" fill="black"/>
<path opacity="0.25" d="M36.3987 19.2923C36.0512 17.6026 36.5619 15.9992 37.5783 15.2286C37.8551 15.0199 38.169 14.8719 38.5139 14.8003C40.1255 14.4695 41.788 15.9435 42.2301 18.0937C42.6711 20.2425 41.7255 22.2533 40.114 22.5841C39.5987 22.6911 39.0755 22.6113 38.5921 22.3842C37.5633 21.9016 36.7001 20.7534 36.3987 19.2923Z" fill="black"/>
<path d="M36.3987 19.2922C36.0512 17.6025 36.5619 15.9991 37.5783 15.2285C38.607 15.7115 39.4726 16.8601 39.7715 18.3206C40.1191 20.0104 39.6084 21.6137 38.592 22.3843C37.5633 21.9015 36.7001 20.7533 36.3987 19.2922Z" fill="#FCBC1D"/>
<path d="M39.6574 23.3433C39.198 23.3433 38.734 23.2375 38.29 23.029C37.9342 22.8619 37.7813 22.438 37.9484 22.0823C38.1156 21.7265 38.5399 21.5738 38.8949 21.7406C39.2577 21.911 39.6194 21.9605 39.9697 21.8878C41.1734 21.6407 41.8888 19.9691 41.5334 18.2371C41.1774 16.5055 39.861 15.2508 38.6574 15.4979C38.4262 15.5458 38.2069 15.6466 38.0072 15.7972C37.1798 16.4245 36.8131 17.772 37.0964 19.1492C37.1757 19.5342 36.9276 19.9104 36.5426 19.9897C36.1568 20.069 35.7812 19.8209 35.7022 19.436C35.3048 17.5035 35.8726 15.6295 37.1489 14.6619C37.5194 14.3827 37.9296 14.1953 38.3699 14.104C40.3641 13.6949 42.4075 15.4206 42.9277 17.9509C43.447 20.4818 42.2491 22.8732 40.2574 23.2818C40.0598 23.3228 39.8591 23.3433 39.6574 23.3433Z" fill="#333333"/>
<path d="M42.3178 14.0855C42.084 14.0855 41.8551 13.9705 41.719 13.7594C40.816 12.3589 39.7437 11.0664 38.5317 9.91779C38.2464 9.64749 38.2343 9.197 38.5048 8.91162C38.7748 8.62637 39.2254 8.61413 39.5108 8.88457C40.8052 10.1114 41.9507 11.4919 42.9152 12.988C43.1281 13.3183 43.0331 13.7587 42.7027 13.9718C42.5834 14.0488 42.4498 14.0855 42.3178 14.0855Z" fill="white"/>
<path d="M38.9198 41.3273C38.7297 41.3273 38.5401 41.2516 38.4 41.1018C38.1314 40.8148 38.1465 40.3644 38.4335 40.096C42.6146 36.1844 45.0127 30.6677 45.0127 24.9608C45.0127 23.7178 44.9014 22.472 44.6817 21.2585C44.6117 20.8717 44.8686 20.5014 45.2552 20.4314C45.6428 20.3616 46.0121 20.6181 46.0823 21.005C46.317 22.3019 46.436 23.6329 46.436 24.9608C46.436 31.0602 43.8737 36.9556 39.4059 41.1354C39.2687 41.2637 39.0939 41.3273 38.9198 41.3273Z" fill="white"/>
<path d="M35.9263 43.6703C35.6933 43.6703 35.465 43.556 35.3287 43.346C35.1147 43.0164 35.2084 42.5756 35.5382 42.3616C35.9018 42.1257 36.2621 41.8753 36.6093 41.6178C36.925 41.3834 37.3707 41.4497 37.6049 41.7651C37.8392 42.0808 37.7731 42.5265 37.4574 42.7608C37.0866 43.036 36.7015 43.3035 36.3132 43.5555C36.1935 43.6333 36.0591 43.6703 35.9263 43.6703Z" fill="white"/>
<path d="M25.0001 49.9999C11.215 49.9999 0 38.7849 0 24.9999C0 11.215 11.215 0 25.0001 0C38.785 0 50 11.215 50 24.9999C49.9999 38.7849 38.7849 49.9999 25.0001 49.9999ZM25.0001 1.42336C11.9998 1.42336 1.42336 11.9998 1.42336 24.9999C1.42336 38.0001 11.9998 48.5765 25.0001 48.5765C38.0002 48.5765 48.5766 38.0001 48.5766 24.9999C48.5766 11.9998 38.0002 1.42336 25.0001 1.42336Z" fill="#333333"/>
<path opacity="0.25" d="M29.0582 25.9281C29.0582 28.4745 26.9929 30.5398 24.4466 30.5398C23.947 30.5398 23.4659 30.4601 23.0146 30.312C24.8593 29.71 26.193 27.9749 26.193 25.9281C26.193 23.8813 24.8593 22.1462 23.0146 21.5441C23.4659 21.3961 23.947 21.3164 24.4466 21.3164C26.9929 21.3165 29.0582 23.3817 29.0582 25.9281Z" fill="black"/>
<path d="M14.1625 36.8676C13.8992 37.212 13.5689 37.4882 13.1732 37.676C11.4495 38.4945 9.16647 37.2917 8.07475 34.9916C6.98304 32.6915 7.49545 30.1621 9.21914 29.3437C9.47961 29.2199 9.7529 29.143 10.0333 29.1089C11.6047 28.9153 13.3896 30.0753 14.3176 32.0296C15.1588 33.8032 15.0478 35.7105 14.1625 36.8676Z" fill="#FCBC1D"/>
<path opacity="0.25" d="M14.1617 36.8676C12.5889 37.0626 10.804 35.9011 9.87743 33.9483C9.03622 32.1748 9.14724 30.2661 10.0326 29.1089C11.604 28.9153 13.3889 30.0753 14.3169 32.0296C15.1581 33.8033 15.0471 35.7106 14.1617 36.8676Z" fill="black"/>
<path d="M12.0292 38.6411C10.2732 38.6411 8.41186 37.362 7.43187 35.2973C6.17334 32.6457 6.83791 29.6871 8.91331 28.702C9.95421 28.2078 11.1698 28.2739 12.3361 28.8879C13.4342 29.4662 14.3659 30.4735 14.9596 31.7244C15.1283 32.0795 14.977 32.504 14.6218 32.6725C14.267 32.8412 13.8423 32.6897 13.6739 32.3347C13.2113 31.36 12.5006 30.5833 11.6728 30.1475C10.913 29.7473 10.1498 29.6907 9.5235 29.9879C8.15708 30.6364 7.79569 32.7444 8.7176 34.687C9.63951 36.6293 11.5008 37.6824 12.8678 37.0338C13.4938 36.7366 13.9327 36.1095 14.1032 35.2679C14.1813 34.8826 14.5569 34.6336 14.942 34.7116C15.3273 34.7896 15.5762 35.1651 15.4982 35.5504C15.2366 36.8421 14.5192 37.8255 13.4782 38.3197C13.0189 38.5377 12.5282 38.6411 12.0292 38.6411Z" fill="#333333"/>
<path d="M24.447 31.2505C21.5119 31.2505 19.124 28.8627 19.124 25.9276C19.124 25.5346 19.4426 25.2159 19.8357 25.2159C20.2288 25.2159 20.5474 25.5346 20.5474 25.9276C20.5474 28.0778 22.2967 29.8272 24.447 29.8272C26.5972 29.8272 28.3466 28.0777 28.3466 25.9276C28.3466 23.7774 26.5972 22.028 24.447 22.028C23.7387 22.028 23.0455 22.2196 22.4422 22.582C22.1053 22.7845 21.668 22.6753 21.4657 22.3383C21.2633 22.0014 21.3725 21.5641 21.7094 21.3617C22.534 20.8664 23.4806 20.6045 24.447 20.6045C27.3821 20.6045 29.7699 22.9923 29.7699 25.9274C29.7699 28.8625 27.3821 31.2505 24.447 31.2505Z" fill="#333333"/>
<path d="M24.1624 14.2595C23.4913 14.2595 22.8606 13.9982 22.3861 13.5238C22.1083 13.2458 22.1083 12.7952 22.3862 12.5173C22.6639 12.2394 23.1147 12.2394 23.3927 12.5173C23.5982 12.723 23.8717 12.8362 24.1624 12.8362C24.4532 12.8362 24.7267 12.7229 24.9323 12.5173C25.3566 12.0929 25.3566 11.4021 24.9322 10.9775C24.7267 10.7719 24.4532 10.6587 24.1624 10.6587C23.8717 10.6587 23.5982 10.7719 23.3927 10.9775C23.1147 11.2555 22.6642 11.2555 22.3862 10.9775C22.1083 10.6997 22.1083 10.2491 22.3861 9.97109C22.8606 9.49654 23.4915 9.23535 24.1624 9.23535C24.8334 9.23535 25.4643 9.49668 25.9387 9.97109C26.9181 10.9506 26.9181 12.5444 25.9388 13.5238C25.4641 13.9982 24.8334 14.2595 24.1624 14.2595Z" fill="#333333"/>
<path d="M33.0433 39.9324C32.3722 39.9324 31.7415 39.671 31.267 39.1966C30.9891 38.9187 30.9891 38.468 31.2671 38.1902C31.5448 37.9122 31.9956 37.9122 32.2736 38.1902C32.4791 38.3959 32.7525 38.509 33.0433 38.509C33.3341 38.509 33.6075 38.3959 33.8131 38.1902C34.0187 37.9845 34.132 37.7111 34.132 37.4203C34.132 37.1295 34.0187 36.8561 33.8132 36.6504C33.6075 36.4447 33.3341 36.3316 33.0433 36.3316C32.7525 36.3316 32.4791 36.4447 32.2736 36.6504C31.9956 36.9284 31.5451 36.9284 31.2671 36.6504C30.9891 36.3726 30.9891 35.9219 31.267 35.6439C31.7415 35.1694 32.3723 34.9082 33.0433 34.9082C33.7143 34.9082 34.3451 35.1695 34.8197 35.6439C35.2941 36.1183 35.5554 36.7493 35.5554 37.4203C35.5554 38.0913 35.2941 38.7222 34.8195 39.1966C34.3453 39.671 33.7144 39.9324 33.0433 39.9324Z" fill="#333333"/>
</svg>
